<?xml version="1.0" standalone="no"?>
<!DOCTYPE svg PUBLIC "-//W3C//DTD SVG 20010904//EN"
 "http://www.w3.org/TR/2001/REC-SVG-20010904/DTD/svg10.dtd">
<svg version="1.0" xmlns="http://www.w3.org/2000/svg"
 width="300.000000pt" height="300.000000pt" viewBox="0 0 300.000000 300.000000"
 preserveAspectRatio="xMidYMid meet">
<metadata>
Created by potrace 1.14, written by Peter Selinger 2001-2017
</metadata>
<g transform="translate(0.000000,300.000000) scale(0.100000,-0.100000)"
fill="#000000" stroke="none">
<path d="M2633 2986 c1 -6 -5 -11 -13 -11 -17 0 -109 -86 -104 -96 2 -4 -3
-10 -12 -13 -8 -3 -13 -10 -10 -15 3 -5 -1 -12 -10 -15 -9 -4 -14 -13 -10 -21
3 -9 0 -15 -10 -15 -8 0 -20 -12 -27 -27 -6 -16 -16 -31 -22 -35 -5 -4 -6 -8
-1 -8 5 0 -1 -9 -14 -20 -13 -11 -19 -20 -14 -20 5 0 1 -5 -9 -11 -9 -6 -15
-14 -12 -18 2 -5 -2 -14 -10 -21 -8 -7 -15 -17 -15 -22 0 -5 -10 -19 -22 -30
-13 -11 -16 -17 -8 -13 8 4 6 -1 -4 -9 -11 -9 -16 -16 -10 -16 5 0 1 -5 -9
-11 -9 -6 -15 -14 -12 -20 4 -5 1 -9 -5 -9 -6 0 -15 -11 -22 -25 -6 -13 -14
-23 -17 -21 -3 2 -12 -2 -19 -10 -10 -11 -10 -14 0 -14 9 0 9 -3 -2 -10 -8 -5
-15 -14 -15 -20 0 -6 -7 -15 -15 -20 -8 -5 -11 -10 -7 -10 4 0 -1 -10 -12 -22
-11 -11 -18 -25 -15 -30 3 -4 -2 -11 -10 -14 -9 -3 -16 -13 -16 -21 0 -8 -4
-11 -10 -8 -9 6 -12 -1 -9 -22 0 -4 -10 -11 -23 -16 -14 -6 -18 -11 -10 -14 9
-4 6 -10 -9 -24 -12 -10 -18 -19 -13 -19 5 0 -2 -10 -16 -21 -14 -11 -18 -17
-10 -13 13 7 13 6 0 -12 -8 -10 -22 -25 -30 -32 -13 -12 -13 -13 0 -6 8 5 3
-7 -13 -26 -15 -19 -31 -40 -36 -46 -5 -6 -12 -20 -15 -32 -4 -13 -12 -19 -18
-16 -6 4 -8 2 -5 -3 6 -9 -9 -34 -48 -80 -5 -7 -15 -19 -22 -27 -6 -7 -9 -17
-6 -20 4 -3 1 -6 -5 -6 -7 0 -12 -7 -12 -15 0 -8 -5 -15 -11 -15 -5 0 -7 -5
-4 -10 3 -6 -1 -13 -9 -16 -9 -3 -13 -10 -10 -15 3 -5 1 -9 -5 -9 -5 0 -13 -9
-16 -20 -4 -11 -11 -17 -17 -14 -6 4 -8 2 -4 -4 3 -6 -1 -17 -9 -25 -8 -9 -15
-20 -15 -26 0 -6 -5 -11 -11 -11 -5 0 -8 -4 -5 -9 3 -5 -1 -11 -9 -15 -8 -3
-15 -10 -15 -16 0 -6 -6 -18 -12 -25 -30 -33 -38 -45 -38 -55 0 -5 -5 -10 -12
-10 -6 0 -9 -3 -5 -6 3 -4 1 -12 -6 -20 -30 -33 -35 -42 -30 -48 4 -3 1 -6 -5
-6 -7 0 -12 -7 -12 -15 0 -9 -7 -18 -15 -21 -8 -4 -12 -10 -9 -15 3 -5 0 -9
-5 -9 -6 0 -11 -7 -11 -16 0 -8 -4 -13 -9 -10 -5 3 -12 -6 -15 -20 l-7 -25
-28 30 c-16 17 -31 27 -35 24 -3 -3 -6 -1 -6 6 0 16 -285 301 -301 301 -7 0
-9 3 -6 6 6 6 -13 26 -68 72 -8 7 -15 9 -15 5 0 -4 -4 -2 -9 5 -4 7 -24 14
-44 15 -21 1 -37 6 -37 11 0 5 -8 2 -17 -5 -15 -12 -16 -12 -10 4 3 9 2 17 -3
17 -6 0 -10 -4 -10 -9 0 -6 -9 -8 -20 -6 -11 2 -20 0 -20 -5 0 -5 -15 -8 -34
-6 -19 1 -33 -1 -31 -5 3 -4 -3 -13 -12 -20 -14 -12 -16 -12 -9 1 4 8 0 6 -8
-4 -9 -11 -16 -17 -16 -13 0 3 -14 -7 -30 -23 -17 -16 -30 -33 -30 -39 0 -5
-7 -12 -16 -15 -9 -3 -14 -13 -11 -20 3 -8 -1 -17 -10 -20 -12 -5 -13 -9 -3
-21 10 -12 9 -16 -2 -20 -15 -6 -16 -49 -3 -83 3 -7 0 -10 -5 -7 -6 3 -10 2
-10 -4 0 -5 4 -12 10 -16 5 -3 7 -12 3 -20 -3 -8 0 -15 6 -15 6 0 11 -8 11
-17 0 -21 56 -89 70 -85 6 1 9 -2 8 -6 -4 -11 216 -232 231 -232 6 0 10 -4 9
-8 -4 -12 143 -158 154 -154 5 1 7 -1 4 -6 -6 -10 58 -72 74 -72 5 0 9 -4 8
-8 -5 -14 165 -177 180 -174 8 2 12 0 9 -5 -3 -5 8 -16 24 -26 17 -9 27 -12
24 -7 -8 13 41 6 58 -8 15 -13 50 -6 42 8 -6 10 15 8 33 -4 8 -5 12 -3 10 6
-2 7 4 13 12 13 8 0 21 4 28 8 6 5 18 5 25 1 6 -4 9 -4 5 0 -3 4 18 31 48 60
29 29 51 56 47 59 -3 4 0 7 7 7 7 0 10 3 7 6 -4 4 3 15 14 25 11 9 20 21 20
26 -1 4 7 19 17 33 11 14 18 28 18 31 -2 10 32 39 46 39 10 0 10 2 0 8 -9 6
-7 14 8 30 12 12 17 22 13 22 -4 0 0 5 10 11 9 5 17 17 17 24 0 8 5 15 10 15
6 0 10 7 10 15 0 8 5 15 10 15 6 0 10 6 10 13 0 8 10 19 23 25 12 6 17 11 10
11 -7 1 -10 8 -7 16 4 8 9 13 14 10 6 -4 32 39 34 57 1 3 12 16 25 27 13 12
21 21 16 21 -4 0 -2 7 5 15 7 8 16 12 21 9 5 -3 6 2 3 10 -3 9 -1 16 5 16 6 0
11 7 11 15 0 8 5 15 11 15 5 0 8 4 5 9 -3 5 1 11 9 15 8 3 15 14 15 23 0 10 9
25 20 33 11 8 20 20 20 27 0 7 5 13 11 13 5 0 8 4 5 9 -3 5 1 11 9 15 9 3 12
12 8 22 -4 11 -3 15 5 11 6 -4 17 5 24 20 27 53 43 78 63 98 11 11 23 25 25
30 3 6 8 9 12 8 4 -2 5 4 2 12 -4 8 -1 15 6 15 6 0 9 4 6 9 -3 5 1 12 9 15 8
3 14 9 13 13 -3 11 53 93 64 93 5 0 6 5 3 10 -3 6 -2 10 4 10 6 0 7 7 4 17 -4
11 -3 14 6 9 8 -5 14 -1 18 13 3 12 10 21 15 21 5 0 6 5 3 10 -3 6 -1 10 5 10
6 0 14 8 17 18 4 9 15 25 26 35 11 9 17 17 13 17 -4 0 2 10 13 22 11 11 18 25
15 30 -3 4 2 11 10 14 9 3 13 10 10 15 -3 5 0 9 5 9 6 0 11 7 11 15 0 8 5 15
10 15 6 0 10 5 10 10 0 11 13 28 44 60 11 11 16 20 12 20 -5 0 3 9 18 21 14
11 26 30 26 43 0 12 9 28 19 36 11 7 18 17 15 22 -3 4 2 11 10 14 9 3 14 10
11 14 -3 4 2 11 11 14 8 3 13 10 9 15 -3 6 3 14 12 20 10 6 14 11 9 11 -6 0
-1 7 10 16 10 8 12 13 4 9 -8 -4 -6 1 4 9 11 9 17 16 13 16 -5 0 -3 6 3 13 6
6 18 21 26 32 9 11 12 14 8 6 -5 -9 -3 -12 4 -7 7 4 12 16 12 27 0 10 5 19 11
19 5 0 7 5 4 10 -3 6 -1 10 5 10 6 0 8 5 5 10 -3 6 -1 10 5 10 6 0 8 5 5 10
-3 6 -2 10 3 10 5 0 9 45 9 100 0 83 -3 105 -18 124 -10 13 -15 26 -12 30 3 3
1 6 -5 6 -7 0 -12 8 -12 18 0 14 -2 15 -10 2 -6 -10 -10 -11 -10 -2 0 17 -37
52 -54 52 -8 0 -16 6 -18 13 -6 16 -228 19 -225 3z"/>
<path d="M614 2786 c-4 -11 -11 -13 -22 -7 -9 5 -26 5 -39 0 -13 -5 -23 -5
-23 -1 0 4 -5 0 -10 -8 -7 -10 -10 -11 -10 -2 0 9 -6 8 -25 -4 -13 -8 -28 -13
-34 -10 -5 3 -12 -1 -15 -10 -4 -9 -9 -14 -13 -10 -3 3 -17 -1 -30 -9 -13 -9
-23 -13 -23 -10 0 3 -8 -3 -18 -12 -38 -36 -60 -51 -66 -46 -3 4 -6 2 -6 -3 0
-6 -20 -32 -45 -58 -25 -27 -45 -55 -45 -62 0 -8 -4 -14 -10 -14 -5 0 -10 -7
-10 -15 0 -8 -4 -15 -9 -15 -9 0 -25 -51 -21 -66 1 -4 -4 -11 -12 -15 -10 -7
-10 -9 2 -9 13 -1 12 -2 -1 -10 -10 -6 -15 -20 -14 -35 2 -14 0 -25 -4 -25
-10 0 -6 -94 4 -110 5 -9 4 -11 -3 -6 -16 10 -15 -7 1 -23 7 -9 7 -11 1 -8
-14 8 -27 -20 -14 -28 5 -3 8 -29 6 -58 -1 -28 2 -57 6 -64 6 -6 4 -14 -3 -19
-8 -5 -9 -3 -4 6 5 8 4 11 -3 6 -15 -9 -3 -38 12 -29 6 3 2 -4 -9 -17 -11 -13
-15 -20 -9 -17 15 9 27 -20 12 -29 -7 -5 -8 -2 -3 7 5 8 4 10 0 6 -16 -14 -14
-39 2 -33 13 5 14 4 3 -9 -7 -8 -9 -15 -5 -15 4 0 2 -6 -4 -14 -9 -11 -9 -16
0 -22 8 -5 9 -3 4 6 -5 9 -4 11 4 6 8 -5 9 -12 2 -19 -5 -7 -8 -29 -7 -49 2
-23 -2 -38 -8 -38 -7 0 -7 -3 -1 -8 11 -8 13 -37 3 -47 -4 -4 -3 -18 2 -31 6
-15 6 -26 -1 -30 -8 -4 -8 -9 0 -14 8 -5 9 -14 2 -33 -6 -15 -7 -27 -2 -27 5
0 8 -8 6 -17 -2 -10 -4 -18 -5 -18 -1 0 -3 -12 -4 -27 -1 -16 3 -28 9 -28 5 0
3 -5 -5 -10 -13 -9 -13 -11 0 -20 11 -7 12 -12 3 -21 -7 -7 -9 -19 -3 -34 5
-13 6 -25 4 -28 -10 -10 -11 -57 -2 -57 5 0 6 -4 3 -10 -11 -18 -14 -50 -4
-50 5 0 9 -5 9 -11 0 -5 -3 -8 -7 -6 -5 3 -9 -6 -9 -19 -1 -13 2 -24 7 -24 6
0 5 -9 -1 -20 -8 -15 -8 -20 2 -20 9 0 9 -3 -2 -10 -11 -7 -11 -10 -2 -10 8 0
10 -5 6 -12 -11 -18 -12 -62 -1 -69 5 -4 6 -13 1 -20 -13 -21 -13 -39 -1 -39
8 0 7 -3 -2 -9 -9 -6 -10 -11 -2 -15 8 -5 8 -13 0 -28 -8 -15 -8 -22 1 -28 9
-6 9 -9 -1 -13 -11 -4 -11 -6 -1 -6 8 -1 10 -6 6 -13 -11 -18 -12 -48 -2 -48
5 0 4 -9 -2 -20 -8 -15 -8 -20 2 -20 10 0 10 -2 -1 -9 -9 -6 -10 -11 -2 -15 8
-5 8 -13 0 -29 -9 -16 -9 -22 -1 -25 9 -3 9 -9 2 -23 -8 -14 -7 -19 2 -19 9 0
9 -3 -2 -10 -11 -7 -11 -10 -2 -10 7 0 10 -5 6 -12 -10 -16 -13 -68 -4 -68 4
0 6 -13 5 -30 -1 -16 3 -30 8 -30 5 0 4 -6 -2 -14 -9 -11 -9 -15 0 -18 12 -4
19 -30 20 -70 0 -10 8 -18 17 -19 9 0 12 -3 5 -5 -7 -3 -2 -15 13 -31 13 -14
22 -28 19 -31 -2 -3 7 -13 20 -24 14 -11 23 -24 20 -29 -4 -5 1 -9 9 -9 9 0
16 -7 16 -15 0 -8 4 -15 9 -15 5 0 25 -15 45 -32 19 -18 41 -34 48 -36 7 -2
15 -8 16 -13 2 -5 8 -7 13 -3 5 3 9 0 9 -5 0 -6 7 -11 15 -11 8 0 15 -4 15 -9
0 -5 7 -12 16 -15 8 -3 12 -2 9 4 -3 6 1 7 9 4 9 -3 13 -10 10 -15 -3 -5 2 -6
10 -3 9 3 16 1 16 -5 0 -6 7 -8 15 -5 9 4 15 0 15 -7 0 -11 3 -11 10 1 5 8 10
11 10 5 0 -11 50 -12 68 -1 7 4 12 2 12 -5 0 -8 4 -9 13 0 10 8 17 7 25 -1 9
-9 12 -9 12 2 0 11 3 11 12 2 7 -7 17 -8 30 -1 14 7 18 6 18 -6 0 -8 5 -15 10
-15 6 0 10 6 10 13 0 8 4 7 10 -3 8 -12 10 -12 10 -1 0 9 4 10 13 4 6 -5 26
-8 42 -6 73 7 205 9 205 3 0 -3 35 -5 78 -3 96 4 194 4 295 0 42 -2 77 -1 77
3 0 3 34 5 75 5 41 0 75 -2 75 -5 0 -3 34 -5 75 -5 41 0 75 2 75 5 0 3 34 5
75 6 41 0 75 -3 75 -6 0 -5 45 -5 195 2 22 1 43 7 47 13 5 7 8 7 8 -1 0 -6 17
-10 39 -10 22 1 37 -2 35 -6 -8 -13 11 -9 25 5 11 10 12 9 6 -1 -6 -11 -3 -12
11 -4 11 6 22 10 27 11 4 1 10 2 15 2 4 1 15 1 25 0 9 -1 17 3 17 9 0 6 5 8
10 5 6 -4 17 -1 25 5 8 6 19 9 25 5 5 -3 10 -1 10 5 0 6 5 8 10 5 6 -3 10 -1
10 4 0 6 9 11 21 11 13 0 18 4 13 12 -5 7 -3 8 5 4 7 -5 19 0 27 10 9 11 12
12 8 4 -7 -13 -6 -13 11 0 40 31 155 150 155 160 0 5 5 10 11 10 5 0 7 5 4 10
-3 6 -1 10 5 10 6 0 8 5 5 10 -3 6 -1 10 4 10 6 0 11 7 11 15 0 8 5 15 10 15
6 0 9 3 9 7 -4 24 2 43 12 37 7 -4 7 1 -1 16 -10 18 -9 21 1 15 9 -6 11 -3 6
8 -3 10 -2 17 4 17 6 0 7 5 3 11 -3 6 -1 15 7 19 10 7 10 12 -2 26 -8 10 -9
15 -3 11 7 -4 11 6 11 28 0 22 -4 32 -11 28 -6 -3 -5 0 2 8 14 15 17 43 3 35
-10 -7 -9 20 2 30 12 13 8 36 -5 28 -10 -6 -10 -4 0 7 16 17 16 42 0 33 -10
-6 -10 -4 0 7 6 7 12 19 12 27 0 8 -5 10 -12 6 -10 -6 -10 -4 -2 7 6 8 11 23
11 34 0 11 -5 26 -11 34 -7 10 -8 13 0 8 7 -4 11 6 11 28 0 22 -4 32 -11 28
-6 -3 -5 0 2 8 14 15 17 43 3 35 -10 -7 -9 20 2 30 12 13 8 36 -5 28 -10 -6
-10 -4 0 7 6 7 12 19 12 27 0 8 -5 10 -12 6 -10 -6 -10 -4 0 7 6 7 12 19 12
27 0 8 -5 10 -12 6 -10 -6 -10 -4 -2 7 6 8 11 23 11 34 0 11 -5 26 -11 34 -7
10 -8 13 0 8 7 -4 11 6 11 28 0 22 -4 32 -11 28 -6 -3 -5 0 2 8 14 15 17 43 3
35 -10 -7 -9 20 2 30 12 13 8 36 -5 28 -10 -6 -10 -4 0 7 6 7 12 19 12 27 0 8
-5 10 -12 6 -10 -6 -10 -4 0 7 6 7 12 19 12 27 0 8 -5 10 -12 6 -10 -6 -10 -4
-2 7 6 8 11 23 11 34 0 11 -5 26 -11 34 -7 10 -8 13 0 8 7 -4 11 6 11 28 0 22
-4 32 -11 28 -6 -3 -5 0 2 8 14 15 17 43 3 35 -10 -7 -9 20 2 30 12 13 8 36
-5 28 -10 -6 -10 -4 0 7 6 7 12 19 12 27 0 8 -5 10 -12 6 -10 -6 -10 -4 0 7 6
7 12 19 12 27 0 8 -5 10 -12 6 -10 -6 -10 -4 -2 7 15 20 26 51 15 44 -5 -3
-12 -1 -16 5 -3 5 -1 10 5 10 7 0 5 6 -4 15 -8 8 -20 15 -26 15 -17 0 -40 -26
-40 -44 0 -9 -5 -16 -12 -16 -6 0 -9 -3 -5 -6 3 -4 -4 -15 -16 -25 -12 -10
-18 -18 -14 -19 5 0 1 -7 -7 -16 -9 -8 -13 -20 -10 -26 4 -6 2 -8 -4 -4 -6 3
-13 -3 -17 -14 -3 -11 -11 -20 -16 -20 -6 0 -7 -4 -4 -10 3 -5 1 -10 -4 -10
-6 0 -11 -7 -11 -15 0 -8 -5 -15 -11 -15 -5 0 -8 -4 -5 -8 3 -5 -4 -14 -14
-22 -10 -8 -17 -17 -14 -22 3 -4 0 -8 -6 -8 -6 0 -9 -4 -6 -8 3 -5 -4 -14 -14
-22 -10 -8 -17 -17 -14 -22 3 -4 0 -8 -5 -8 -6 0 -11 -6 -11 -14 0 -8 -7 -16
-15 -20 -8 -3 -14 -10 -13 -15 2 -5 -6 -17 -17 -26 -11 -9 -14 -13 -7 -10 11
6 11 3 0 -14 -7 -12 -16 -21 -20 -21 -5 0 -8 -7 -8 -15 0 -8 -4 -15 -9 -15
-11 0 -9 -19 3 -39 6 -9 5 -12 -2 -7 -12 7 -10 -73 2 -92 3 -6 1 -14 -5 -18
-8 -5 -9 -3 -4 6 5 8 4 11 -3 7 -5 -4 -8 -16 -5 -27 3 -11 9 -18 12 -15 4 2 8
-2 8 -10 0 -8 -3 -12 -7 -10 -3 2 -6 -29 -5 -70 0 -40 3 -72 6 -70 3 2 6 -2 6
-10 0 -8 -4 -12 -8 -9 -9 5 -5 -79 5 -94 3 -6 1 -14 -5 -18 -8 -5 -9 -3 -4 6
5 8 4 11 -3 7 -5 -4 -8 -16 -5 -27 3 -11 9 -18 12 -15 4 2 8 -2 8 -10 0 -8 -3
-12 -7 -10 -3 2 -6 -29 -5 -70 0 -40 3 -72 6 -70 3 2 6 -2 6 -10 0 -8 -4 -12
-9 -9 -5 4 -7 -11 -4 -33 4 -24 1 -48 -8 -65 -10 -20 -11 -28 -3 -32 7 -2 4
-5 -5 -5 -9 -1 -20 -6 -24 -13 -4 -7 -3 -8 4 -4 7 4 12 5 12 2 0 -11 -66 -40
-95 -43 -24 -2 -27 -1 -15 8 12 9 12 10 -3 5 -10 -3 -21 -6 -23 -6 -3 0 -2 -5
2 -11 5 -8 1 -8 -13 0 -11 6 -23 7 -27 3 -4 -3 -11 0 -16 8 -6 10 -10 11 -10
3 0 -9 -13 -11 -42 -9 -24 3 -48 0 -54 -5 -8 -6 -14 -6 -18 0 -3 5 -16 7 -29
4 -18 -4 -20 -3 -7 7 13 10 12 11 -3 6 -10 -3 -21 -6 -23 -6 -3 0 -2 -5 2 -11
5 -8 1 -8 -13 0 -11 6 -23 7 -27 3 -4 -3 -11 0 -16 8 -6 10 -10 11 -10 3 0 -9
-13 -11 -42 -9 -24 3 -48 0 -54 -5 -8 -6 -14 -6 -18 0 -3 5 -16 7 -29 4 -18
-4 -20 -3 -7 7 13 10 12 11 -3 6 -10 -3 -21 -6 -23 -6 -3 0 -2 -5 2 -11 5 -8
1 -8 -13 0 -11 6 -23 7 -27 3 -4 -3 -11 0 -16 8 -6 10 -10 11 -10 3 0 -9 -13
-11 -42 -9 -24 3 -48 0 -54 -5 -8 -6 -14 -6 -18 0 -3 5 -16 7 -29 4 -18 -4
-20 -3 -7 7 13 10 12 11 -3 6 -10 -3 -21 -6 -23 -6 -3 0 -2 -5 2 -11 5 -8 1
-8 -13 0 -11 6 -23 7 -27 3 -4 -3 -11 0 -16 8 -6 10 -10 11 -10 3 0 -9 -13
-11 -42 -9 -24 3 -48 0 -54 -5 -8 -6 -14 -6 -18 0 -3 5 -16 7 -29 4 -18 -4
-20 -3 -7 7 13 10 12 11 -3 6 -10 -3 -21 -6 -23 -6 -3 0 -2 -5 2 -11 5 -8 1
-8 -13 0 -11 6 -23 7 -27 3 -4 -3 -11 0 -16 8 -6 10 -10 11 -10 3 0 -9 -13
-11 -42 -9 -24 3 -48 0 -54 -5 -8 -6 -14 -6 -18 0 -3 5 -16 7 -29 4 -18 -4
-19 -3 -7 6 17 12 10 14 -14 5 -9 -3 -13 -11 -10 -16 4 -6 -1 -6 -13 1 -11 6
-23 7 -27 3 -4 -3 -11 0 -16 8 -6 10 -10 11 -10 3 0 -9 -13 -11 -42 -9 -24 3
-48 0 -54 -5 -8 -6 -14 -6 -18 0 -3 5 -16 7 -29 4 -18 -4 -20 -3 -7 7 13 10
12 11 -3 6 -10 -3 -21 -6 -23 -6 -3 0 -2 -5 2 -11 5 -8 1 -8 -13 0 -11 6 -23
7 -27 3 -4 -3 -11 0 -16 8 -6 10 -10 11 -10 3 0 -9 -13 -11 -42 -9 -24 3 -48
0 -54 -5 -8 -6 -14 -6 -18 0 -3 5 -16 7 -29 4 -18 -4 -19 -3 -7 6 8 6 10 11 5
11 -6 0 -16 -5 -23 -12 -9 -9 -12 -9 -12 0 0 7 -6 12 -13 12 -16 0 -47 36 -47
54 0 26 -12 46 -24 39 -6 -3 -3 3 7 14 14 16 15 23 6 29 -8 5 -10 3 -4 -6 5
-9 4 -11 -4 -6 -8 6 -9 12 -2 20 7 9 7 17 -2 26 -8 8 -8 11 -1 7 7 -4 15 0 18
9 3 8 2 13 -3 10 -5 -3 -11 3 -14 14 -3 11 -2 18 3 15 4 -3 11 2 14 11 3 8 2
12 -4 9 -5 -3 -8 15 -8 43 1 26 -2 53 -6 60 -4 7 -2 12 5 12 7 0 5 8 -7 22
-10 12 -13 18 -5 13 11 -6 13 -4 8 8 -3 9 -1 18 6 21 9 3 9 5 0 5 -7 1 -10 8
-6 18 5 12 3 14 -8 8 -11 -7 -12 -6 -2 6 10 12 10 18 1 27 -9 9 -9 12 0 12 9
0 10 5 2 19 -8 16 -6 22 6 29 15 8 15 10 -1 16 -14 5 -15 9 -6 20 9 10 9 16 1
21 -8 5 -8 11 1 21 9 11 8 14 -2 14 -9 0 -10 3 -4 8 15 11 18 55 2 46 -8 -5
-8 -2 2 9 10 13 10 17 1 17 -10 0 -10 3 0 15 10 12 10 15 -1 15 -8 0 -6 6 7
16 10 8 14 13 8 10 -7 -3 -14 2 -16 12 -6 23 1 44 14 36 6 -4 6 1 -1 13 -6 11
-7 23 -4 27 3 3 1 6 -6 6 -8 0 -6 7 6 18 10 9 13 13 6 8 -8 -5 -13 -4 -13 2 0
6 5 14 10 17 8 5 7 11 -1 21 -9 11 -8 14 2 14 12 0 12 2 0 9 -11 7 -11 9 0 14
8 3 10 6 4 6 -11 1 -12 92 -1 109 3 6 2 13 -2 16 -11 6 -9 43 3 53 4 5 5 2 1
-4 -4 -7 -2 -13 4 -13 7 0 9 7 6 16 -3 9 -6 18 -6 20 0 3 -6 2 -12 -2 -10 -6
-10 -5 -1 7 10 12 10 18 0 29 -9 10 -9 11 1 6 9 -6 11 0 8 20 -3 15 -1 33 5
40 7 8 6 15 -2 20 -8 5 -9 3 -4 -6 5 -9 4 -11 -4 -6 -8 6 -9 12 -2 20 7 9 7
17 -2 26 -10 10 -8 12 7 6 20 -7 20 -7 0 15 -10 12 -14 19 -8 16 14 -8 28 20
15 28 -5 2 -8 40 -7 82 1 43 -3 84 -9 92 -8 12 -6 13 8 8 13 -5 16 -3 10 6
-12 19 -13 40 -2 53 7 8 6 15 -2 20 -8 5 -9 3 -4 -6 6 -9 4 -11 -4 -5 -9 5
-10 10 -2 18 7 7 7 15 -2 26 -10 12 -9 14 6 8 13 -5 16 -3 10 6 -12 20 -13 40
0 56 9 12 9 13 0 7 -9 -5 -13 0 -13 13 0 12 4 21 9 21 5 0 8 8 7 18 -2 9 5 24
15 33 10 9 15 19 12 23 -4 4 1 4 11 0 13 -5 17 -4 13 3 -9 14 23 27 36 14 13
-13 39 -2 30 13 -3 6 4 2 16 -8 21 -19 21 -19 15 -1 -6 14 -4 16 6 10 19 -11
71 -15 64 -4 -3 5 0 9 5 9 6 0 11 -6 11 -12 0 -9 4 -8 10 2 5 8 10 11 10 5 0
-5 5 -3 10 5 6 9 10 10 10 3 0 -6 13 -11 30 -11 16 1 27 4 25 8 -2 4 3 7 11 7
9 0 13 -6 9 -15 -4 -12 -3 -13 10 -2 10 8 15 9 15 1 0 -6 5 -11 11 -11 5 0 7
5 3 12 -5 7 -3 8 7 2 8 -5 21 -7 31 -6 9 2 19 -2 22 -7 9 -14 37 -2 29 13 -3
6 -1 6 8 -1 15 -14 33 -18 25 -5 -3 5 11 7 30 6 19 -2 32 0 30 5 -3 4 2 8 10
8 9 0 13 -6 9 -15 -4 -12 -3 -13 10 -2 8 7 15 9 15 4 0 -5 5 -2 10 6 7 12 10
12 10 1 0 -7 6 -11 14 -8 8 3 22 0 32 -8 21 -15 47 -9 37 9 -3 6 4 2 16 -8 21
-19 21 -19 15 -1 -6 14 -4 16 6 10 20 -13 70 -14 70 -2 0 6 3 7 6 4 4 -3 16
-2 27 4 15 9 18 8 12 -2 -6 -9 -3 -11 8 -6 10 4 17 1 17 -6 0 -8 4 -6 10 3 5
8 10 11 10 7 0 -4 10 -3 21 4 17 9 20 8 14 -2 -6 -9 -3 -11 8 -6 10 4 17 1 17
-5 0 -6 3 -8 7 -5 3 4 12 2 20 -5 11 -9 12 -7 7 7 -6 14 -4 16 6 10 7 -4 26
-8 42 -7 19 0 26 -3 21 -11 -4 -7 1 -6 11 2 15 13 19 13 27 0 7 -11 9 -11 9 4
0 14 5 17 20 12 12 -4 28 -1 37 7 14 11 16 11 8 -1 -6 -11 -4 -13 8 -8 10 4
17 1 17 -6 0 -8 3 -9 8 -1 4 6 18 10 32 9 25 -2 50 15 50 34 0 6 5 11 10 11 6
0 10 7 10 15 0 8 5 15 10 15 6 0 10 7 10 15 0 8 5 15 11 15 5 0 7 5 4 10 -3 6
1 13 9 16 9 3 16 15 16 26 0 10 5 16 10 13 6 -3 10 -1 10 5 0 6 4 8 10 5 5 -3
7 0 4 8 -3 8 2 17 10 20 9 4 16 13 16 22 0 8 5 15 11 15 5 0 7 5 4 10 -3 6 1
10 10 10 9 0 14 4 11 9 -3 5 1 14 9 21 8 7 12 16 9 21 -3 5 1 9 9 9 19 0 16
35 -6 60 -14 17 -21 19 -38 9 -15 -8 -19 -8 -15 0 5 8 0 8 -18 1 -14 -5 -26
-6 -26 -2 0 8 -64 7 -86 -2 -6 -2 -17 0 -24 4 -7 5 -23 4 -35 0 -14 -5 -27 -4
-34 3 -8 8 -11 8 -11 -2 0 -7 -5 -9 -12 -5 -7 5 -28 7 -48 6 -19 -1 -41 -2
-47 -2 -7 0 -19 0 -25 0 -7 0 -29 -1 -48 -2 -20 -1 -41 1 -48 6 -7 4 -12 2
-12 -5 0 -8 -4 -9 -13 0 -10 8 -17 7 -25 -1 -7 -7 -12 -8 -12 -2 0 6 -12 9
-27 8 -43 -4 -74 -5 -126 -3 -26 1 -50 -1 -54 -4 -3 -4 -13 -2 -22 3 -10 5
-23 5 -30 1 -7 -5 -30 -5 -51 -1 -21 4 -44 4 -51 -1 -7 -4 -20 -4 -29 1 -9 5
-23 4 -34 -2 -14 -8 -17 -7 -12 1 5 8 0 8 -18 1 -14 -5 -26 -6 -26 -2 0 5 -12
7 -27 6 -30 -3 -67 -4 -95 -4 -10 0 -24 0 -30 -1 -7 0 -25 2 -40 4 -16 2 -28
0 -28 -5 0 -5 -4 -7 -8 -4 -17 11 -62 14 -62 5 0 -6 -8 -5 -20 1 -16 9 -22 8
-26 -4z"/>
</g>
</svg>
